<?xml version="1.0" encoding="UTF-8" standalone="no"?>
<!-- Created with Inkscape (http://www.inkscape.org/) -->

<svg
   width="1024"
   height="1024"
   viewBox="0 0 1024 1024"
   version="1.1"
   id="svg5"
   xml:space="preserve"
   xmlns="http://www.w3.org/2000/svg"
   xmlns:svg="http://www.w3.org/2000/svg"
   xmlns:rdf="http://www.w3.org/1999/02/22-rdf-syntax-ns#"
   xmlns:cc="http://creativecommons.org/ns#"><defs
     id="defs2" /><g
     id="layer1"><g
       id="g16292"
       transform="matrix(1.0501773,0,0,1.0501773,30.827821,125.77681)"><path
         id="rect4083"
         style="opacity:1;fill:none;fill-opacity:1;stroke:#000000;stroke-width:22.4739;stroke-dasharray:none;stroke-opacity:1;stop-color:#000000"
         d="m 663.64851,69.482302 c -88.95808,0 -160.57451,71.818678 -160.57451,161.027898 v 150.88924 c 0,59.35362 31.70698,111.00031 79.12599,138.92736 L 558.70217,645.78539 664.6089,542.42735 h 60.83907 c 88.95808,0 160.5745,-71.81868 160.5745,-161.02791 V 230.5102 c 0,-89.20922 -71.61642,-161.027898 -160.5745,-161.027898 z" /><path
         id="rect1011"
         style="fill:#1bb9c7;fill-opacity:1;stroke:none;stroke-width:0.405897;stop-color:#000000"
         d="m 694.54919,114.79145 a 28.67916,20.844225 0 0 0 -28.68004,20.84271 28.67916,20.844225 0 0 0 21.76022,20.21558 v 10.98075 h -79.48609 c -21.13564,0 -38.15099,17.01532 -38.15099,38.151 v 219.83377 c 0,21.13563 17.01535,38.15293 38.15099,38.15293 h 172.80988 c 21.13574,0 38.15102,-17.0173 38.15102,-38.15293 V 204.98149 c 0,-21.13568 -17.01528,-38.151 -38.15102,-38.151 H 701.4671 v -10.98075 a 28.67916,20.844225 0 0 0 21.76019,-20.21558 28.67916,20.844225 0 0 0 -28.6781,-20.84271 z M 634.2199,259.26586 a 25.973268,27.534137 0 0 1 25.97404,27.53413 25.973268,27.534137 0 0 1 -25.97404,27.53413 25.973268,27.534137 0 0 1 -25.97208,-27.53413 25.973268,27.534137 0 0 1 25.97208,-27.53413 z m 121.30313,0 a 25.973268,27.534137 0 0 1 25.97404,27.53413 25.973268,27.534137 0 0 1 -25.97404,27.53413 25.973268,27.534137 0 0 1 -25.97208,-27.53413 25.973268,27.534137 0 0 1 25.97208,-27.53413 z M 620.15767,362.7884 h 74.39152 74.38963 a 74.390287,44.065786 0 0 1 -37.19484,38.16263 74.390287,44.065786 0 0 1 -74.38958,0 74.390287,44.065786 0 0 1 -37.19673,-38.16263 z" /><path
         style="fill:#000000;fill-opacity:1;stroke:none;stroke-width:0.494253;stop-color:#000000"
         id="path354"
         d="m 753.60035,369.89236 a 59.052132,27.009979 0 0 1 -29.52607,23.39133 59.052132,27.009979 0 0 1 -59.05213,0 59.052132,27.009979 0 0 1 -29.52606,-23.39133 h 59.05213 z" /><path
         id="rect3245"
         style="fill:#1bb9c7;fill-opacity:1;stroke:none;stroke-width:0.392772;stroke-opacity:1;stop-color:#000000"
         d="m 563.32797,256.23466 c -15.44345,0.9787 -27.58643,13.73034 -27.58643,29.42913 v 74.18444 c 0,15.69878 12.14298,28.45043 27.58643,29.42909 z m 262.44054,0.1723 v 132.69809 c 14.57259,-1.81791 25.78046,-14.17603 25.78046,-29.25682 v -74.18444 c 0,-15.08076 -11.20791,-27.43885 -25.78046,-29.25683 z" /><path
         style="fill:#1bb9c7;fill-opacity:1;stroke:#000000;stroke-width:0.527009;stop-color:#000000"
         id="path4000"
         d="m 744.3009,470.32559 a 49.752686,36.448772 0 0 1 -24.87634,31.56557 49.752686,36.448772 0 0 1 -49.75269,-1e-5 49.752686,36.448772 0 0 1 -24.87634,-31.56556 h 49.75269 z" /><path
         id="path4074"
         style="fill:#1bb9c7;fill-opacity:1;stroke:none;stroke-width:0.354598;stroke-opacity:1;stop-color:#000000"
         d="m 755.10146,267.98775 c -10.93062,4e-5 -19.79162,8.86103 -19.79165,19.79165 0,10.93062 8.86103,19.79166 19.79165,19.7917 10.93066,0 19.7917,-8.86104 19.7917,-19.7917 -4e-5,-10.93062 -8.86108,-19.79165 -19.7917,-19.79165 z m -0.93611,14.01328 c 4.82402,-8.3e-4 8.73519,3.90949 8.73544,8.7335 8.3e-4,4.82477 -3.91064,8.73624 -8.73544,8.73545 -4.82402,-2.6e-4 -8.73429,-3.91143 -8.7335,-8.73545 2.6e-4,-4.82326 3.91023,-8.73323 8.7335,-8.7335 z" /><path
         id="path4076"
         style="fill:#1bb9c7;fill-opacity:1;stroke:none;stroke-width:0.354598;stroke-opacity:1;stop-color:#000000"
         d="m 635.22292,267.98775 c -10.93062,4e-5 -19.79163,8.86103 -19.79166,19.79165 0,10.93062 8.86104,19.79166 19.79166,19.7917 10.93065,0 19.79169,-8.86104 19.79169,-19.7917 -4e-5,-10.93062 -8.86108,-19.79165 -19.79169,-19.79165 z m -0.93612,14.01328 c 4.82402,-8.3e-4 8.73519,3.90949 8.73545,8.7335 8.2e-4,4.82477 -3.91064,8.73624 -8.73545,8.73545 -4.82401,-2.6e-4 -8.73428,-3.91143 -8.7335,-8.73545 2.7e-4,-4.82326 3.91023,-8.73323 8.7335,-8.7335 z" /><path
         id="path7062"
         style="opacity:1;fill:#000000;fill-opacity:1;stroke:none;stroke-width:1.02602;stroke-linejoin:round;stroke-dasharray:none;stroke-opacity:1;paint-order:stroke markers fill;stop-color:#000000"
         d="M 210.94495 107.38937 C 210.39511 107.39171 209.84435 107.39539 209.29531 107.40239 C 197.79709 107.55035 186.4718 108.7731 175.42082 110.93788 C 176.30752 115.08801 176.77847 119.36859 176.77847 123.75007 L 176.77847 123.75751 C 176.77135 132.77881 174.72422 141.50629 170.94985 149.55859 C 172.21714 148.87306 173.67071 148.48548 175.2181 148.48548 L 175.45801 148.48548 C 180.41731 148.48548 184.40925 152.47743 184.40925 157.43672 L 184.40925 253.33943 C 216.51812 257.8607 240.39632 285.33372 240.39868 317.75935 C 240.38758 350.17834 216.51155 377.64405 184.40925 382.1644 L 184.40925 487.90175 L 389.75776 487.90175 L 389.75776 392.60163 L 346.38339 392.60163 C 341.92695 392.60163 338.33974 389.01249 338.33974 384.55611 C 338.33974 380.09962 341.92695 376.51245 346.38339 376.51245 L 389.75776 376.51245 L 389.75776 237.59804 L 389.75776 237.59618 C 367.34864 150.77206 304.92586 115.36805 229.63971 108.23186 C 225.07238 107.79915 220.48883 107.53219 215.90133 107.43214 C 214.24592 107.39599 212.59448 107.38235 210.94495 107.38937 z M 166.265 157.89237 L 166.265 157.89609 C 166.26575 157.89495 166.2661 157.89352 166.26686 157.89237 L 166.265 157.89237 z M 166.265 157.89609 C 159.68893 167.8562 150.28156 176.39625 138.76406 182.62778 L 146.24048 200.7274 C 147.23361 203.13071 144.70988 205.47639 142.3851 204.31125 L 116.15999 191.14197 C 109.73997 192.56161 103.16451 193.41346 96.539048 193.42581 C 83.144109 193.42603 70.480548 190.5604 59.339228 185.49002 C 54.911383 191.73381 50.829621 198.27361 47.179823 205.12584 C 12.185686 270.82504 21.372512 350.75736 70.403208 407.18622 C 95.499662 436.01474 129.05545 456.31801 166.265 465.5097 L 166.265 382.1644 C 134.1627 377.64405 110.28663 350.17834 110.27557 317.75935 C 110.28567 285.3396 134.16195 257.87476 166.265 253.35431 L 166.265 157.89609 z M 329.68792 266.75048 C 347.6819 266.75027 362.26897 281.33656 362.26985 299.33054 C 362.26399 310.23397 356.80548 320.39299 347.76151 326.42232 C 347.54775 326.56483 347.3339 326.70665 347.11616 326.8445 C 347.33326 326.70679 347.5476 326.56521 347.76151 326.42232 C 350.97015 324.27896 353.81573 321.55738 356.12691 318.33961 C 349.31206 320.42489 341.33202 319.2519 341.61485 312.64489 C 342.06437 302.14832 354.88456 305.38607 354.88456 305.38607 C 354.88456 305.38607 355.94039 275.42888 329.35502 275.07311 L 329.35316 275.07311 C 302.7678 275.42895 303.82175 305.38793 303.82175 305.38793 C 303.82175 305.38793 316.64194 302.15026 317.09146 312.64675 C 317.36089 318.93856 310.14019 320.29801 303.5651 318.613 C 299.40998 313.03919 297.1467 306.28258 297.106 299.33054 C 297.10688 281.33657 311.69395 266.75029 329.68792 266.75048 z M 343.56765 328.7973 C 343.21312 328.96373 342.85484 329.12357 342.49454 329.27712 C 342.85449 329.1228 343.21361 328.96417 343.56765 328.7973 z " /><g
         id="path8075"
         style="fill:#000000;fill-opacity:1"
         transform="matrix(3.7456462,0,0,3.7456462,-52.453539,-156.19291)"><path
           style="color:#000000;fill:#000000;fill-opacity:1;stroke-width:1.5;stroke-linecap:round;stroke-linejoin:round;-inkscape-stroke:none;paint-order:markers fill stroke"
           d="M 39.7769,56.887484 A 20.672272,17.851631 0 0 0 19.10426,74.739107 20.672272,17.851631 0 0 0 39.7769,92.590731 20.672272,17.851631 0 0 0 45.162618,91.963896 l 7.191809,3.611149 -2.229838,-5.393986 A 20.672272,17.851631 0 0 0 60.449023,74.739107 20.672272,17.851631 0 0 0 39.7769,56.887484 Z"
           id="path8809" /></g><path
         style="fill:#000000;fill-opacity:1;stroke:none;stroke-width:0.991034px;stroke-linecap:butt;stroke-linejoin:miter;stroke-opacity:1"
         d="M 272.23567,611.61296 V 491.74629 h -70.5707 l -26.34492,23.48591 c 0,0 -2.06654,2.47052 -8.36494,0.70748 -4.68881,-1.31249 -6.89611,-10.12841 -12.38047,-10.12841 -5.48436,0 -35.67433,13.08732 -58.391879,42.03962 -22.717559,28.95232 -22.653452,63.76125 -22.653452,63.76125 z"
         id="path8950" /></g></g><metadata
     id="metadata17068"><rdf:RDF><cc:Work
         rdf:about=""><cc:license
           rdf:resource="http://creativecommons.org/licenses/by-sa/4.0/" /></cc:Work><cc:License
         rdf:about="http://creativecommons.org/licenses/by-sa/4.0/"><cc:permits
           rdf:resource="http://creativecommons.org/ns#Reproduction" /><cc:permits
           rdf:resource="http://creativecommons.org/ns#Distribution" /><cc:requires
           rdf:resource="http://creativecommons.org/ns#Notice" /><cc:requires
           rdf:resource="http://creativecommons.org/ns#Attribution" /><cc:permits
           rdf:resource="http://creativecommons.org/ns#DerivativeWorks" /><cc:requires
           rdf:resource="http://creativecommons.org/ns#ShareAlike" /></cc:License></rdf:RDF></metadata></svg>
