<?xml version="1.0" encoding="UTF-8" standalone="no"?>
<!-- Created with Inkscape (http://www.inkscape.org/) -->

<svg
   width="32"
   height="32"
   viewBox="0 0 48 48"
   version="1.1"
   id="svg5"
   xml:space="preserve"
   xmlns="http://www.w3.org/2000/svg"
   xmlns:svg="http://www.w3.org/2000/svg"
   xmlns:rdf="http://www.w3.org/1999/02/22-rdf-syntax-ns#"
   xmlns:cc="http://creativecommons.org/ns#"><defs
     id="defs2" /><g
     id="layer1"
     transform="matrix(0.06894529,0,0,0.06894529,-37.736786,-12.88896)"><g
       id="g16292"
       transform="matrix(1.0501773,0,0,1.0501773,30.827821,125.77681)"><g
         id="g341"
         transform="translate(50.460073,-97.184881)"><g
           id="g327"
           transform="translate(-24.301358,193.78024)"><path
             id="rect1011"
             style="fill:#1bb9c7;fill-opacity:1;stroke:none;stroke-width:10.3584;stroke-dasharray:none;stop-color:#000000"
             d="m 694.54919,114.79145 c -15.83859,-3.5e-4 -28.67889,9.3311 -28.68004,20.84271 0.008,9.57018 8.98173,17.90674 21.76022,20.21558 v 10.98075 h -79.48609 c -21.13564,0 -38.15099,17.01532 -38.15099,38.151 v 219.83377 c 0,21.13563 17.01535,38.15293 38.15099,38.15293 h 172.80988 c 21.13574,0 38.15102,-17.0173 38.15102,-38.15293 V 204.98149 c 0,-21.13568 -17.01528,-38.151 -38.15102,-38.151 H 701.4671 v -10.98075 c 12.77848,-2.30884 21.75201,-10.6454 21.76019,-20.21558 -0.001,-11.51106 -12.84027,-20.84228 -28.6781,-20.84271 z M 634.2199,259.26586 c 14.34494,-4.5e-4 25.97404,12.32713 25.97404,27.53413 0,15.207 -11.6291,27.53458 -25.97404,27.53413 -14.34417,-7e-4 -25.97208,-12.32794 -25.97208,-27.53413 0,-15.20619 11.62791,-27.53343 25.97208,-27.53413 z m 121.30313,0 c 14.34494,-4.5e-4 25.97404,12.32713 25.97404,27.53413 0,15.207 -11.6291,27.53458 -25.97404,27.53413 -14.34417,-7e-4 -25.97208,-12.32794 -25.97208,-27.53413 0,-15.20619 11.62791,-27.53343 25.97208,-27.53413 z M 620.15767,362.7884 h 74.39152 74.38963 c 3.9e-4,15.74334 -14.17824,30.29089 -37.19484,38.16263 -23.01626,7.87143 -51.37332,7.87143 -74.38958,0 -23.01733,-7.87145 -37.19673,-22.41905 -37.19673,-38.16263 z" /><path
             style="fill:none;fill-opacity:1;stroke:#000000;stroke-width:4.14337;stroke-dasharray:none;stroke-opacity:1;stop-color:#000000"
             id="path354"
             d="m 768.73615,362.89803 a 74.187928,44.931197 0 0 1 -37.09398,38.91157 74.187928,44.931197 0 0 1 -74.18792,0 74.187928,44.931197 0 0 1 -37.09396,-38.91157 h 74.18793 z" /><path
             id="rect3245"
             style="fill:#1bb9c7;fill-opacity:1;stroke:#000000;stroke-width:10.3584;stroke-dasharray:none;stroke-opacity:1;stop-color:#000000"
             d="m 563.32797,256.23466 c -15.44345,0.9787 -27.58643,13.73034 -27.58643,29.42913 v 74.18444 c 0,15.69878 12.14298,28.45043 27.58643,29.42909 z m 262.44054,0.1723 v 132.69809 c 14.57259,-1.81791 25.78046,-14.17603 25.78046,-29.25682 v -74.18444 c 0,-15.08076 -11.20791,-27.43885 -25.78046,-29.25683 z" /><path
             style="fill:#1bb9c7;fill-opacity:1;stroke:#000000;stroke-width:10.3584;stroke-dasharray:none;stroke-opacity:1;stop-color:#000000"
             id="path4000"
             d="m 744.3009,470.32559 a 49.752686,36.448772 0 0 1 -24.87634,31.56557 49.752686,36.448772 0 0 1 -49.75269,-1e-5 49.752686,36.448772 0 0 1 -24.87634,-31.56556 h 49.75269 z" /><path
             id="path4074"
             style="fill:#1bb9c7;fill-opacity:1;stroke:#000000;stroke-width:2.73846;stroke-dasharray:none;stroke-opacity:1;stop-color:#000000"
             d="m 755.52129,273.7117 c -7.2243,4e-5 -13.08075,5.85648 -13.08078,13.08077 0,7.2243 5.85648,13.08077 13.08078,13.0808 7.22431,0 13.0808,-5.85648 13.0808,-13.0808 -3e-5,-7.22429 -5.85651,-13.08077 -13.0808,-13.08077 z" /><path
             id="path4076"
             style="fill:#1bb9c7;fill-opacity:1;stroke:#000000;stroke-width:2.73901;stroke-dasharray:none;stroke-opacity:1;stop-color:#000000"
             d="m 633.93907,273.70904 c -7.22577,4e-5 -13.0834,5.85766 -13.08343,13.08342 0,7.22578 5.85766,13.08343 13.08343,13.08347 7.22581,0 13.08347,-5.85766 13.08347,-13.08347 -4e-5,-7.22576 -5.85769,-13.08342 -13.08347,-13.08342 z" /><g
             id="path1056"><path
               style="color:#000000;fill:#000000;-inkscape-stroke:none"
               d="m 694.54883,109.61133 c -8.93645,-2e-4 -17.12074,2.58743 -23.32422,7.0957 -6.20348,4.50827 -10.53439,11.24446 -10.53516,18.92578 v 0.004 0.002 c 0.01,11.51463 9.33684,20.61468 21.75977,24.24805 v 1.76367 h -74.30664 c -23.91532,0 -43.33008,19.41668 -43.33008,43.33203 v 219.83203 c 0,23.91531 19.41444,43.33203 43.33008,43.33203 h 172.81054 c 23.91573,0 43.33008,-19.41673 43.33008,-43.33203 V 204.98242 c 0,-23.91534 -19.41467,-43.33203 -43.33008,-43.33203 h -74.30664 v -1.76367 c 12.42309,-3.63331 21.74993,-12.73332 21.75977,-24.24805 v -0.002 -0.004 c -7.7e-4,-7.68096 -4.33211,-14.41752 -10.53516,-18.92578 -6.20305,-4.50826 -14.38624,-7.09546 -23.32226,-7.0957 z m 0,10.35937 c 6.90179,1.9e-4 13.05618,2.08002 17.23242,5.11524 4.17554,3.0347 6.26649,6.71749 6.26758,10.54687 -0.008,6.33411 -6.45483,13.12508 -17.50196,15.1211 l -4.25976,0.76757 v 20.48829 h 84.66601 c 18.35604,0 32.97266,14.61668 32.97266,32.97265 v 219.83203 c 0,18.35592 -14.61694,32.97461 -32.97266,32.97461 H 608.14258 c -18.3556,0 -32.97071,-14.6187 -32.97071,-32.97461 V 204.98242 c 0,-18.35596 14.61478,-32.97265 32.97071,-32.97265 h 84.66601 v -20.48829 l -4.25781,-0.76757 c -11.04602,-1.99581 -17.49265,-8.78558 -17.50195,-15.11914 v -0.002 -0.004 c 0.003,-3.82818 2.09115,-7.50925 6.26562,-10.54297 4.17659,-3.03526 10.33225,-5.11539 17.23438,-5.11524 z"
               id="path1067" /></g><ellipse
             style="fill:none;fill-opacity:0.595247;stroke:#000000;stroke-width:4.14337;stroke-linecap:round;stroke-linejoin:round;stroke-dasharray:none;stroke-opacity:1;paint-order:markers fill stroke;stop-color:#000000"
             id="path1180"
             cx="755.5213"
             cy="286.79248"
             rx="25.983679"
             ry="27.539925" /><ellipse
             style="fill:none;fill-opacity:0.595247;stroke:#000000;stroke-width:4.14337;stroke-linecap:round;stroke-linejoin:round;stroke-dasharray:none;stroke-opacity:1;paint-order:markers fill stroke;stop-color:#000000"
             id="ellipse1182"
             cx="633.93909"
             cy="286.79248"
             rx="25.983679"
             ry="27.539925" /></g><path
           id="rect4083"
           style="opacity:1;fill:none;fill-opacity:1;stroke:#000000;stroke-width:11.8983;stroke-dasharray:none;stroke-opacity:1;stop-color:#000000"
           d="m 915.75226,273.97869 c -47.09697,0 -85.01277,38.02288 -85.01277,85.25282 v 79.88511 c 0,31.42352 16.78658,58.76676 41.89158,73.55215 l -12.44043,66.4214 56.07008,-54.72073 h 32.20997 c 47.09699,0 85.01281,-38.02288 85.01281,-85.25282 v -79.88511 c 0,-47.22994 -37.91582,-85.25282 -85.01281,-85.25282 z" /></g></g></g><metadata
     id="metadata17068"><rdf:RDF><cc:Work
         rdf:about=""><cc:license
           rdf:resource="http://creativecommons.org/licenses/by-sa/4.0/" /></cc:Work><cc:License
         rdf:about="http://creativecommons.org/licenses/by-sa/4.0/"><cc:permits
           rdf:resource="http://creativecommons.org/ns#Reproduction" /><cc:permits
           rdf:resource="http://creativecommons.org/ns#Distribution" /><cc:requires
           rdf:resource="http://creativecommons.org/ns#Notice" /><cc:requires
           rdf:resource="http://creativecommons.org/ns#Attribution" /><cc:permits
           rdf:resource="http://creativecommons.org/ns#DerivativeWorks" /><cc:requires
           rdf:resource="http://creativecommons.org/ns#ShareAlike" /></cc:License></rdf:RDF></metadata></svg>
